<svg xmlns="http://www.w3.org/2000/svg" xmlns:xlink="http://www.w3.org/1999/xlink" aria-hidden="true" role="img" class="iconify iconify--ph" width="32" height="32" preserveAspectRatio="xMidYMid meet" viewBox="0 0 256 256"><path d="M233.615 195.575l-41.41-154.549a16.015 16.015 0 0 0-19.597-11.313l-30.91 8.282c-.34.091-.663.21-.992.32A15.966 15.966 0 0 0 128 32H96a15.88 15.88 0 0 0-8 2.165A15.88 15.88 0 0 0 80 32H48a16.018 16.018 0 0 0-16 16v160a16.018 16.018 0 0 0 16 16h32a15.88 15.88 0 0 0 8-2.165A15.88 15.88 0 0 0 96 224h32a16.018 16.018 0 0 0 16-16v-99.597l27.796 103.736a15.992 15.992 0 0 0 19.596 11.314l30.91-8.282a16.018 16.018 0 0 0 11.313-19.596zM176.75 45.167l6.213 23.182l-30.91 8.283l-6.212-23.182zM128 48l.007 120H96V48zm-48 0v24H48V48zm48 160H96v-24h32.008l.002 24zm90.16-8.284l-30.91 8.282l-6.21-23.182l30.917-8.285l6.213 23.182z" fill="black"></path></svg>