<svg xmlns="http://www.w3.org/2000/svg" xmlns:xlink="http://www.w3.org/1999/xlink" aria-hidden="true" role="img" class="iconify iconify--iconoir" width="32" height="32" preserveAspectRatio="xMidYMid meet" viewBox="0 0 24 24"><g stroke-width="1.5" fill="none"><path d="M21 7.6v12.8a.6.6 0 0 1-.6.6H7.6a.6.6 0 0 1-.6-.6V7.6a.6.6 0 0 1 .6-.6h12.8a.6.6 0 0 1 .6.6z" stroke="black" stroke-linecap="round" stroke-linejoin="round"></path><path d="M18 4H4.6a.6.6 0 0 0-.6.6V18" stroke="black" stroke-linecap="round" stroke-linejoin="round"></path><path d="M12.909 11.545a.6.6 0 0 0-.909.515v3.88a.6.6 0 0 0 .909.515l3.233-1.94a.6.6 0 0 0 0-1.03l-3.233-1.94z" stroke="black" stroke-linecap="round" stroke-linejoin="round"></path></g></svg>