<svg xmlns="http://www.w3.org/2000/svg" xmlns:xlink="http://www.w3.org/1999/xlink" aria-hidden="true" role="img" class="iconify iconify--fontisto" width="16" height="32" preserveAspectRatio="xMidYMid meet" viewBox="0 0 12 24"><path d="M12.462.173v3.808h-2.265a2.11 2.11 0 0 0-1.675.521l.002-.002a2.368 2.368 0 0 0-.432 1.566v-.008v2.726h4.229l-.56 4.27H8.098V24H3.681V13.053H.001V8.784h3.68V5.639a5.56 5.56 0 0 1 1.502-4.162l-.003.003A5.418 5.418 0 0 1 9.185.002h-.013a24.124 24.124 0 0 1 3.406.185l-.117-.012z" fill="blue"></path></svg>