<svg xmlns="http://www.w3.org/2000/svg" xmlns:xlink="http://www.w3.org/1999/xlink" aria-hidden="true" role="img" class="iconify iconify--fluent" width="32" height="32" preserveAspectRatio="xMidYMid meet" viewBox="0 0 28 28"><g fill="none"><path d="M16.858 13.362l.705 3.528a2.25 2.25 0 0 0 1.82 1.775l2.873.5a2.75 2.75 0 0 0 3.15-2.091l.378-1.636c.485-2.101-.383-4.406-2.537-5.25c-2.107-.826-5.28-1.7-9.25-1.688c-3.947.013-7.106.877-9.212 1.692c-2.169.839-3.052 3.154-2.564 5.27l.372 1.612a2.75 2.75 0 0 0 3.151 2.09l2.872-.499a2.25 2.25 0 0 0 1.821-1.775l.706-3.528c.162-.038.362-.082.591-.125C12.366 13.117 13.19 13 14 13s1.634.117 2.266.237c.229.043.43.087.592.125z" fill="black"></path></g></svg>