<svg xmlns="http://www.w3.org/2000/svg" xmlns:xlink="http://www.w3.org/1999/xlink" aria-hidden="true" role="img" class="iconify iconify--ri" width="32" height="32" preserveAspectRatio="xMidYMid meet" viewBox="0 0 24 24"><path d="M2.132 13.63a9.942 9.942 0 0 1 0-3.26c1.102.026 2.092-.502 2.477-1.431c.385-.93.058-2.004-.74-2.763a9.942 9.942 0 0 1 2.306-2.307c.76.798 1.834 1.125 2.764.74c.93-.385 1.457-1.376 1.43-2.477a9.942 9.942 0 0 1 3.262 0c-.027 1.102.501 2.092 1.43 2.477c.93.385 2.004.058 2.763-.74a9.942 9.942 0 0 1 2.307 2.306c-.798.76-1.125 1.834-.74 2.764c.385.93 1.376 1.457 2.477 1.43a9.942 9.942 0 0 1 0 3.262c-1.102-.027-2.092.501-2.477 1.43c-.385.93-.058 2.004.74 2.763a9.942 9.942 0 0 1-2.306 2.307c-.76-.798-1.834-1.125-2.764-.74c-.93.385-1.457 1.376-1.43 2.477a9.942 9.942 0 0 1-3.262 0c.027-1.102-.501-2.092-1.43-2.477c-.93-.385-2.004-.058-2.763.74a9.942 9.942 0 0 1-2.307-2.306c.798-.76 1.125-1.834.74-2.764c-.385-.93-1.376-1.457-2.477-1.43zM12 15a3 3 0 1 0 0-6a3 3 0 0 0 0 6z" fill="black"></path></svg>