<svg xmlns="http://www.w3.org/2000/svg" xmlns:xlink="http://www.w3.org/1999/xlink" aria-hidden="true" role="img" class="iconify iconify--fluent" width="32" height="32" preserveAspectRatio="xMidYMid meet" viewBox="0 0 16 16"><g fill="none"><path d="M7.194 2.102a.9.9 0 0 1 1.614 0l1.521 3.082l3.401.494a.9.9 0 0 1 .5 1.535l-2.462 2.4l.581 3.387a.9.9 0 0 1-1.306.948L8.001 12.35l-3.042 1.6a.9.9 0 0 1-1.306-.95l.58-3.387l-2.46-2.399a.9.9 0 0 1 .499-1.535l3.4-.494l1.522-3.082zM8 2.726L6.546 5.674a.9.9 0 0 1-.677.492l-3.253.473L4.97 8.933a.9.9 0 0 1 .258.796l-.555 3.24l2.91-1.53a.9.9 0 0 1 .837 0l2.91 1.53l-.556-3.24a.9.9 0 0 1 .258-.796l2.354-2.294l-3.253-.473a.9.9 0 0 1-.677-.492L8 2.726z" fill="black"></path></g></svg>