<svg xmlns="http://www.w3.org/2000/svg" xmlns:xlink="http://www.w3.org/1999/xlink" aria-hidden="true" role="img" class="iconify iconify--eva" width="32" height="32" preserveAspectRatio="xMidYMid meet" viewBox="0 0 24 24"><path fill="black" d="M17.56 21a1 1 0 0 1-.46-.11L12 18.22l-5.1 2.67a1 1 0 0 1-1.45-1.06l1-5.63l-4.12-4a1 1 0 0 1-.25-1a1 1 0 0 1 .81-.68l5.7-.83l2.51-5.13a1 1 0 0 1 1.8 0l2.54 5.12l5.7.83a1 1 0 0 1 .81.68a1 1 0 0 1-.25 1l-4.12 4l1 5.63a1 1 0 0 1-.4 1a1 1 0 0 1-.62.18z"></path></svg>